<svg xmlns="http://www.w3.org/2000/svg" xmlns:xlink="http://www.w3.org/1999/xlink" width="40" height="40"><defs><path id="a" d="M.4.214h5.209V3.79H.399z"/></defs><g fill="none" fill-rule="evenodd"><path fill="#DFEFF7" d="M10.88 24.572v6.35H7.29V24.57z"/><path fill="#3BB896" d="M1 25.28l16.17-.16L9.21 8.163z"/><path fill="#3CCEA5" d="M16.306 19.135l-13.936.138L9.446 4.58z"/><path fill="#3BB896" d="M9.419 2L4.138 12.965l10.4-.103z"/><path fill="#B9ACFA" d="M11.55 16.141v17.05h22.874V16.14L23.051 5.231z"/><path fill="#A291FA" d="M11.555 16.19v17H13.5V14.557z"/><path fill="#8573E1" d="M22.987 7.546L10.155 19.525a.3.3 0 01-.392.012l-1.367-1.122a.283.283 0 01-.014-.429l14.02-13.048c.33-.3.84-.3 1.17 0L37.59 17.986a.283.283 0 01-.014.429l-1.367 1.122a.3.3 0 01-.392-.012l-12.83-11.98z"/><path fill="#F3F6FA" d="M22.987 19.862c2.083 0 3.772 1.65 3.772 3.688v9.64h-7.544v-9.64c0-2.037 1.689-3.688 3.772-3.688"/><path fill="#BCDFEF" d="M25.064 27.293h-1.095a.537.537 0 01-.543-.53c0-.294.243-.531.543-.531h1.095c.3 0 .543.237.543.53a.537.537 0 01-.543.531m-1.575-7.397c-1.849.236-3.274 1.783-3.274 3.655v9.64h-1v-9.64c0-2.037 1.69-3.69 3.773-3.69.17 0 .338.011.5.035"/><path fill="#F3F6FA" d="M22.987 17.3c-1.457 0-2.642-1.159-2.642-2.583 0-1.425 1.185-2.583 2.642-2.583 1.456 0 2.642 1.158 2.642 2.583 0 1.424-1.186 2.583-2.642 2.583"/><path fill="#BCDFEF" d="M21.26 14.716c0-1.271.945-2.33 2.183-2.542-.148-.028-.3-.04-.457-.04-1.456 0-2.64 1.158-2.64 2.582s1.184 2.584 2.64 2.584c.157 0 .31-.013.457-.04-1.238-.213-2.183-1.273-2.183-2.544"/><path fill="#3CCEA5" d="M14.89 29.618h-2.427v-.408c0-.332-.254-.629-.593-.646a.62.62 0 00-.66.611v.443h-1.14V28.51a.642.642 0 00-.593-.646.62.62 0 00-.66.612v1.14H7.583v-.36c0-.332-.254-.63-.592-.647a.62.62 0 00-.66.612v.401c-.623.028-1.12.527-1.12 1.143 0 1.339 1.11 2.424 2.48 2.424h9.814a.443.443 0 00.448-.438v-.141c0-1.653-1.371-2.993-3.062-2.993"/><g transform="translate(31.547 29.411)"><mask id="b" fill="#fff"><use xlink:href="#a"/></mask><path fill="#3CCEA5" d="M3.784 3.79H2.225C1.217 3.79.4 2.99.4 2.003V2c0-.986.817-1.786 1.825-1.786h1.559c1.008 0 1.825.8 1.825 1.786v.003c0 .987-.817 1.787-1.825 1.787" mask="url(#b)"/></g></g></svg>