<svg xmlns="http://www.w3.org/2000/svg" xmlns:xlink="http://www.w3.org/1999/xlink" width="50" height="50"><defs><path id="a" d="M.396.455h12.181v12.077H.396z"/><path id="c" d="M.468.455H12.65v12.077H.468z"/><path id="e" d="M0 .161h38.874v20.422H0z"/><path id="g" d="M.124 0h6.723v4.619H.124z"/><path id="i" d="M.615.137h7.4v5.8h-7.4z"/><path id="k" d="M.544.142h7.4v11.73h-7.4z"/></defs><g fill="none" fill-rule="evenodd"><path fill="#FFD763" d="M11.677 17.079h10.29a3.68 3.68 0 013.678 3.562l-.066.085H13.666c-1.566 0-2.834-1.257-2.834-2.809 0-.463.378-.838.845-.838"/><path fill="#FDE994" d="M21.966 17.079H19.88c1.49 0 1.469 3.647 1.469 3.647h4.231l.066-.085a3.68 3.68 0 00-3.679-3.562"/><g transform="translate(36.423 28.468)"><mask id="b" fill="#fff"><use xlink:href="#a"/></mask><path fill="#8897A2" d="M6.487.455c3.364 0 6.09 2.704 6.09 6.038 0 3.335-2.726 6.04-6.09 6.04S.396 9.827.396 6.492C.396 3.16 3.123.455 6.486.455" mask="url(#b)"/></g><path fill="#F3F6FA" d="M42.909 38.39c-1.907 0-3.458-1.537-3.458-3.428 0-1.89 1.551-3.429 3.458-3.429 1.907 0 3.458 1.539 3.458 3.43 0 1.89-1.55 3.427-3.458 3.427"/><g transform="translate(4.648 28.468)"><mask id="d" fill="#fff"><use xlink:href="#c"/></mask><path fill="#8897A2" d="M6.559.455c3.363 0 6.09 2.704 6.09 6.038 0 3.335-2.727 6.04-6.09 6.04-3.364 0-6.091-2.705-6.091-6.04C.468 3.16 3.195.455 6.558.455" mask="url(#d)"/></g><path fill="#F3F6FA" d="M11.206 38.39c-1.907 0-3.458-1.537-3.458-3.428 0-1.89 1.551-3.429 3.458-3.429 1.907 0 3.459 1.539 3.459 3.43 0 1.89-1.552 3.427-3.459 3.427"/><path fill="#FFD763" d="M43.444 35.89a1.41 1.41 0 01-1.894-.59l-3.858-7.318 2.489-1.29 3.857 7.32c.36.681.093 1.522-.594 1.878"/><g transform="translate(2 14.617)"><mask id="f" fill="#fff"><use xlink:href="#e"/></mask><path fill="#3EC19D" d="M38.874 10.305L33.047.161l-2.41.855s3.76 8.925 2.092 15.008a2.202 2.202 0 01-2.167 1.775h-3.754c-.063 0-.126-.002-.189-.004-3.575-.119-5.947-3.739-4.714-7.068l1.74-4.702c.002-.006-.002-.012-.009-.012H11.888C5.322 6.013 0 11.289 0 17.799v1.908a.88.88 0 00.884.876h31.388c.712 0 1.42-.102 2-.337.685-1.823 2.624-7.062 4.602-9.94" mask="url(#f)"/></g><path fill="#3CCEA5" d="M14.34 26.496H9.896C5.536 26.496 2 30 2 34.324a.88.88 0 00.885.876H21.35v-1.753c0-3.839-3.138-6.951-7.011-6.951"/><path fill="#3BB896" d="M16.36 26.79c.4.285.66.746.66 1.27v7.14h4.331v-1.753c0-3.143-2.104-5.796-4.99-6.657"/><path fill="#3CCEA5" d="M38.548 16.256H32.4a.458.458 0 01-.46-.455v-1.5a.86.86 0 01.656-.835l5.823-1.45a.529.529 0 01.658.51v3.205c0 .29-.237.525-.53.525"/><path fill="#FFD763" d="M38.419 12.016l-1.942.483v3.758h2.07c.293 0 .53-.236.53-.525v-3.207a.529.529 0 00-.658-.51"/><path fill="#3CCEA5" d="M36.272 34.864c.68-.283 1.221-.767 1.52-1.543.228-.59.596-1.12 1.074-1.538 2.616-2.284 6.226-2.625 7.934-2.648a.645.645 0 00.573-.938c-1.177-2.252-3.73-3.594-6.499-3.275 0 0-5.079 4.257-4.602 9.942"/><g transform="translate(26.493 10)"><mask id="h" fill="#fff"><use xlink:href="#g"/></mask><path fill="#3EC19D" d="M6.687 3.485l-1.65-1.987A4.165 4.165 0 001.79 0l-.48.005C.853.01.413.253.224.665a.969.969 0 00.869 1.402l2.24-.017a.738.738 0 01.572.266l1.704 2.05a.7.7 0 00.983.094.688.688 0 00.095-.975" mask="url(#h)"/></g><g transform="translate(9.282 35.064)"><mask id="j" fill="#fff"><use xlink:href="#i"/></mask><path fill="#4F585E" d="M8.016.137c-.126 3.218-2.803 5.8-6.089 5.8A1.31 1.31 0 01.615 4.635c0-.723.59-1.307 1.312-1.307 1.829 0 3.326-1.412 3.445-3.192h2.644z" mask="url(#j)"/></g><g transform="translate(41.056 29.128)"><mask id="l" fill="#fff"><use xlink:href="#k"/></mask><path fill="#4F585E" d="M7.944 5.836C7.944 3.21 6.248.97 3.883.142A13.7 13.7 0 00.869.878l.808 1.537c.053-.006.112-.006.171-.006 1.909 0 3.46 1.536 3.46 3.427 0 .12-.007.23-.02.343.006.006.006.012 0 .012-.007.112-.027.23-.054.335-.02.112-.047.224-.086.329a2 2 0 01-.126.341 3.389 3.389 0 01-.305.552c-.046.079-.099.15-.159.217a2.16 2.16 0 01-.265.295c-.08.079-.159.15-.245.224a2.496 2.496 0 01-.265.196c-.092.06-.185.119-.284.171a3.755 3.755 0 01-.286.132 2.074 2.074 0 01-.337.124 2.683 2.683 0 01-.332.086c-.007.007-.013.007-.02.007a3.766 3.766 0 01-.668.065h-.008a1.31 1.31 0 00-1.304 1.307c0 .716.583 1.294 1.304 1.3h.008a5.6 5.6 0 00.655-.039c.186-.014.365-.047.543-.079.206-.04.41-.092.61-.151l.278-.098a5.942 5.942 0 002.14-1.327c.067-.066.14-.132.199-.204a4.84 4.84 0 00.45-.525c.06-.08.12-.158.173-.237.053-.085.106-.163.159-.25a5.133 5.133 0 00.278-.512c.139-.262.245-.539.33-.82a.541.541 0 00.034-.105c.033-.112.06-.224.087-.335a6.13 6.13 0 00.119-.69 6.08 6.08 0 00.026-.354c.007-.027.007-.047.007-.073h-.007c.007-.079.007-.157.007-.237" mask="url(#l)"/></g></g></svg>