<svg xmlns="http://www.w3.org/2000/svg" xmlns:xlink="http://www.w3.org/1999/xlink" width="149" height="110"><defs><path id="a" d="M0 .13h148.722v85.865H0z"/><path id="c" d="M.123.077h64.392v73.731H.123z"/></defs><g fill="none" fill-rule="evenodd"><g transform="translate(0 23.928)"><mask id="b" fill="#fff"><use xlink:href="#a"/></mask><path fill="#F2F5F9" d="M8.191 85.995C.18 78.063-2.285 61.87 2.271 51.555c2.37-5.368 6.876-10.182 12.654-11.212C22.26 39.034 27.27 27.96 34.641 29.048c1.7.25 5.42 16.255 7 15.58 1.283-.55 2.332-1.525 3.274-2.554C55.222 30.818 55.622 11.81 68.383 3.437 76.213-1.7 87.497-.76 94.366 5.605c4.735 4.386 7.186 10.625 10.497 16.165 5.422 9.074 13.466 16.56 22.906 21.317 7.584 3.822 16.913 6.766 20.023 14.67 2.409 6.121-.117 13.325-4.627 18.115-4.51 4.79-10.673 7.63-16.762 10.123" mask="url(#b)"/></g><path fill="#EFAF7B" d="M43.742 23.827s2.901-1.582 4.22-3.693c1.32-2.11 2.902-7.913 3.166-8.177.264-.264 1.846-4.748 1.846-4.748l-1.846-1.055-3.693 2.638-5.276 6.594 1.583 8.441z"/><g transform="translate(36.403 .187)"><mask id="d" fill="#fff"><use xlink:href="#c"/></mask><path fill="#51585E" d="M61.11 50.39c.25 1.021.769 2.035 1.562 3.268 2.23 3.466 2.444 7.93.599 11.604-1.526 3.038-6.463 8.723-10.414 8.529-.275-.014-.887.145-.938-.295l-39.832-4.484c-2.653-.3-5.731-3.127-7.361-5.062-1.894-2.247-3.163-4.963-3.87-7.804-1.38-5.544-.753-11.504 1.382-16.774 2.077-5.128 6.1-9.452 6.42-15.204C9.449 9.923 19.737 3.592 19.737 3.592 38.2-5.639 46.905 6.228 46.907 6.23c.553.748 3.447 1.476 4.413 2.056 12.644 7.583 14.137 24.707 10.173 37.53-.58 1.877-.714 3.232-.384 4.574" mask="url(#d)"/></g><path fill="#FFC793" d="M63.79 48.624s0 6.858-1.847 7.386c-1.846.527-11.343 1.055-11.343 1.055h-.264L32.4 43.875l11.343-20.048-6.331-9.232-18.993 25.587s-7.386 6.595 2.374 15.3c8.352 7.45 25.588 20.576 25.588 20.576s2.11.527 2.11.791l9.233-13.453 26.115.791s-1.847 5.276 5.54 18.465c7.385 13.19 12.661 19.257 19.256 16.62 6.595-2.639 10.551-35.612 10.551-35.612s4.749.527 9.497-1.583 6.067-3.957 5.54-4.748c-.528-.792-2.375.263-2.375.263l1.847-1.055c2.11-1.582 2.901-2.901 2.374-3.693-.528-.791-2.638.528-2.638.528 1.846-1.32 2.374-2.374 2.374-3.166 0-.791-.264-1.319-1.583-.527-1.319.791-3.165 1.583-3.165 1.583 1.319-.528 2.374-2.11 2.374-2.11 1.846-3.43-1.055-2.375-1.055-2.375-8.441 5.276-13.717 5.012-13.717 5.012l1.319-1.319c5.54-1.055 4.22-5.276 4.22-5.276l-7.386 2.638c-6.594 1.583-7.386 6.595-7.386 6.595l-6.33 21.103-10.289-14.244c-3.335-5.198-7.146-5.287-12.398-5.278-1.124.002-2.242-.312-3.15-.975-3.28-2.39-2.125-7.2-2.125-7.2"/><path fill="#35C19C" d="M132.024 16.787c0 3.307-2.658 5.988-5.938 5.988s-5.938-2.68-5.938-5.988c0-3.307 2.659-5.988 5.938-5.988 3.28 0 5.938 2.681 5.938 5.988"/><path fill="#FFF" d="M126.25 15.192a.663.663 0 01-.636.628c-.313.015-.624.013-.954.009l-.27-.003v-1.362c.099 0 .197-.003.296-.005.347-.007.68-.014 1.01.015.35.03.568.312.553.718zm1.419 3.307l1.34-1.817h-.59c-.24-.001-.463-.002-.687.004-.108.003-.206.082-.262.154-.167.215-.33.432-.5.656l-.033.045-.569-.746c.774-.311 1.1-.773 1.148-1.589.052-.912-.515-1.665-1.38-1.832-.305-.059-.62-.062-.923-.065l-.19-.002a53.148 53.148 0 00-1.199-.004l-.67.001v5.647h1.226v-.815c.001-.38.002-.761 0-1.174.105.004.212.003.318.003.113-.001.222-.002.33.003.02 0 .048.013.053.016.312.411.62.825.932 1.245l.201.27-1.334 1.773h.844c.167 0 .329 0 .491-.003.103-.003.196-.077.249-.146.157-.205.31-.412.472-.63l.01-.014.024.033c.151.203.297.398.444.59.045.06.14.162.261.165.243.007.486.004.743.005h.6l-1.35-1.773z"/><path fill="#31CEA3" d="M138.742 7.077h-20.98a1.31 1.31 0 00-1.305 1.316v25.632a2.42 2.42 0 002.41 2.43h21.164V8.377c0-.718-.577-1.3-1.29-1.3"/><path fill="#35C19C" d="M142.756 36.455h-23.144c.928 0 1.68-.976 1.68-2.45V32.68a.46.46 0 01.458-.461h22.163c.289 0 .523.235.523.527v2.014c0 .936-.752 1.695-1.68 1.695m-10.732-19.668c0 3.307-2.658 5.988-5.938 5.988s-5.938-2.68-5.938-5.988c0-3.307 2.659-5.988 5.938-5.988 3.28 0 5.938 2.681 5.938 5.988"/><path fill="#FFF" d="M126.25 15.192a.663.663 0 01-.636.628c-.313.015-.624.013-.954.009l-.27-.003v-1.362c.099 0 .197-.003.296-.005.347-.007.68-.014 1.01.015.35.03.568.312.553.718zm1.419 3.307l1.34-1.817h-.59c-.24-.001-.463-.002-.687.004-.108.003-.206.082-.262.154-.167.215-.33.432-.5.656l-.033.045-.569-.746c.774-.311 1.1-.773 1.148-1.589.052-.912-.515-1.665-1.38-1.832-.305-.059-.62-.062-.923-.065l-.19-.002a53.148 53.148 0 00-1.199-.004l-.67.001v5.647h1.226v-.815c.001-.38.002-.761 0-1.174.105.004.212.003.318.003.113-.001.222-.002.33.003.02 0 .048.013.053.016.312.411.62.825.932 1.245l.201.27-1.334 1.773h.844c.167 0 .329 0 .491-.003.103-.003.196-.077.249-.146.157-.205.31-.412.472-.63l.01-.014.024.033c.151.203.297.398.444.59.045.06.14.162.261.165.243.007.486.004.743.005h.6l-1.35-1.773z"/><path stroke="#FFF" stroke-linecap="round" stroke-linejoin="round" stroke-width=".932" d="M124.187 25.983h6.902m-6.902 3.511h8.434m-11.165-3.511a.422.422 0 01-.42.424.422.422 0 01-.421-.424c0-.235.188-.425.42-.425.233 0 .421.19.421.425zm0 3.511a.422.422 0 01-.42.424.422.422 0 01-.421-.424c0-.235.188-.425.42-.425.233 0 .421.19.421.425z"/><path stroke="#FF7C78" stroke-width="2.374" d="M144.664 19.8c.986 8.025-4.72 15.33-12.746 16.316-8.025.986-15.33-4.72-16.316-12.745-.987-8.025 4.72-15.33 12.745-16.317 8.025-.986 15.33 4.72 16.317 12.746zM138.74 9.743l-17.535 24.282"/><path fill="#EFAF7B" d="M75.202 51.931c-.381-1.427-.272-2.828-.165-3.565l-11.247.785-.01.022c-.017.6-.063 1.617-.19 2.69 2.602.908 8.123 2.096 11.612.068"/><path fill="#FF7C78" d="M50.6 57.065h-.264l-10.215-7.512-1.73 20.324c4.55 3.562 7.989 6.18 7.989 6.18s.126.032.316.084c.994-3.721 4.061-14.82 5.262-19.157-.828.051-1.358.08-1.358.08m42.206 4.222c-1.506-2.347-3.11-3.65-4.898-4.375l-2.764 16.585c.135.389.284.793.443 1.209l4.845-2.077s4.862-2.342 6.997-4.942l-4.623-6.4z"/><path fill="#FFC793" d="M48.754 28.84s-6.067-2.375-5.54 3.956c0 0 .528 5.276 6.331 3.43 0 0 6.595 15.563 21.367 13.98 0 0 11.607-1.319 15.564-13.19 0 0 6.858 1.056 7.65-4.483 0 0 .527-4.485-5.54-3.694l-2.11-5.275-8.046-13.85-17.146 5.54-8.178 7.386-4.352 6.2z"/><path fill="#51585E" d="M61.152 28.18a1.715 1.715 0 11-3.43 0 1.715 1.715 0 013.43 0m18.993 0a1.715 1.715 0 11-3.43 0 1.715 1.715 0 013.43 0"/><path fill="#FF9582" d="M58.514 35.17c0 1.312-.945 2.375-2.11 2.375-1.166 0-2.11-1.063-2.11-2.375 0-1.31.944-2.374 2.11-2.374 1.165 0 2.11 1.063 2.11 2.374m25.587 0c0 1.312-.944 2.375-2.11 2.375-1.165 0-2.11-1.063-2.11-2.375 0-1.31.945-2.374 2.11-2.374 1.166 0 2.11 1.063 2.11 2.374"/><path fill="#FF7C78" d="M47.962 86.345l-1.055 23.214h42.734l-1.583-22.686c7.65-5.54.264-23.213.264-23.213l1.182-5.908c-2.561-1.71-5.489-1.75-9.096-1.744-.077 0-.153-.005-.23-.008l-.033.01c-.792 2.901-3.43 6.33-11.08 6.858-7.65.528-12.233-6.225-12.233-6.225l-.44.029c-2.901.232-5.792.393-5.792.393h-.264s-11.606 21.63-2.374 29.28"/><path fill="#E29D64" d="M127.986 53.411a39.042 39.042 0 004.73-2.436c.436-.263.039-.948-.399-.683a39.26 39.26 0 01-4.73 2.436c-.196.085-.24.373-.142.541.119.203.344.227.541.142m6.21-1.201a22.013 22.013 0 01-5.897 3.25c-.475.174-.27.94.21.764a23.188 23.188 0 006.246-3.455c.17-.132.137-.42 0-.56-.164-.169-.391-.13-.56 0m-.168 3.529a14.003 14.003 0 01-5.739 2.747c-.497.111-.287.874.21.763a14.851 14.851 0 006.089-2.95c.396-.32-.167-.876-.56-.56m-14.619-5.712l-1.452 1.315a.399.399 0 000 .56c.164.15.395.148.56 0 .483-.439.967-.877 1.452-1.315a.399.399 0 000-.56.407.407 0 00-.56 0"/><path fill="#E29D64" d="M117.692 51.548c.17 1.274-.46 2.576-1.607 3.197-.448.243-.05.926.4.684 1.358-.736 2.203-2.343 1.999-3.881-.028-.212-.162-.396-.396-.396-.192 0-.424.183-.396.396M44.99 31.615a2.21 2.21 0 011.144.093c.361.124.689.351.953.654l.48-.621c-.78-.392-1.836-.09-2.212.724-.182.394-.188.85-.028 1.253.174.44.49.758.926.94.197.082.435-.09.487-.276.063-.229-.079-.405-.277-.487.064.026-.043-.027-.045-.028a1.15 1.15 0 01-.079-.05l-.029-.026c-.028-.027-.056-.053-.083-.081-.009-.01-.074-.096-.035-.041a1.052 1.052 0 01-.054-.082c-.017-.028-.031-.057-.047-.085-.054-.094.013.053-.023-.05-.021-.062-.036-.124-.054-.187-.028-.105-.002.059-.008-.05a1.54 1.54 0 01-.004-.096c0-.033.002-.065.003-.097.004-.104-.02.052.008-.048l.025-.094a.505.505 0 01.017-.051c.014-.03.03-.058.046-.086.001-.001.07-.1.028-.047.04-.05.087-.094.134-.139.076-.071-.046.023.043-.033.028-.017.055-.035.083-.051l.087-.045c.097-.048-.054.01.05-.02.063-.017.125-.035.19-.048.087-.019-.033-.005.049-.005.039 0 .077-.003.117-.002.066.002.231.044.285.071a.398.398 0 00.48-.622c-.705-.808-1.825-1.156-2.868-.95-.21.04-.33.291-.276.486.06.22.276.318.486.277m47.108-.307a3.035 3.035 0 00-3.164-.367c-.323.15-.209.633.095.723a1.478 1.478 0 01.938.842c.18.489.116.97-.187 1.405-.123.175-.032.44.141.54.198.116.419.035.542-.141.408-.583.515-1.39.252-2.054a2.289 2.289 0 00-1.476-1.355l.095.723c.082-.038.149-.063.267-.098a2.642 2.642 0 01.315-.07l.086-.009a2.676 2.676 0 01.497.006c.028.004.057.008.085.014a2.499 2.499 0 01.476.132 2.21 2.21 0 01.384.204l.071.049c.038.028.046.034.023.015.169.131.396.164.56 0 .137-.137.17-.427 0-.56"/><path fill="#FFC793" d="M37.41 14.595s4.485-5.803 8.706-8.178c4.22-2.374 10.551-1.319 10.024 0-.528 1.32-1.49 1.755-4.57 1.933-3.08.178-3.08.705-3.08.705s.264 4.748-3.43 7.386l-1.318 7.386-6.331-9.232z"/><path fill="#FF9582" d="M66.318 41.287a20.342 20.342 0 018.031-2.703c.319-.036.594-.247.594-.594 0-.293-.273-.63-.594-.593a21.755 21.755 0 00-8.63 2.865c-.658.388-.06 1.414.6 1.025m.751-7.385c.896 1.01 2.672 1.012 3.573.008.207-.23.244-.614 0-.84-.227-.207-.619-.246-.84 0-.04.045-.08.087-.124.127-.021.02-.046.037-.067.057-.05.05.11-.074.023-.02-.05.032-.098.065-.15.093-.03.017-.062.031-.093.048-.071.037.023-.016.046-.018-.053.006-.114.043-.166.058a2.014 2.014 0 01-.17.043c-.032.006-.075.007-.105.018.021-.007.135-.013.052-.008-.065.003-.129.009-.194.008-.06 0-.118-.004-.177-.008-.061-.004-.086-.04.035.006-.026-.01-.06-.01-.087-.015a1.64 1.64 0 01-.255-.069c-.022-.007-.119-.049-.028-.007.096.043-.013-.007-.025-.013l-.078-.04c-.051-.028-.1-.06-.149-.091-.084-.055.003-.015.022.02-.012-.022-.05-.041-.067-.058a1.61 1.61 0 01-.136-.138c-.207-.233-.632-.227-.84 0a.609.609 0 000 .84"/><path fill="#51585E" d="M78.298 11.43S66.955 26.201 53.502 23.826c0 0-1.32 5.012-4.485 6.068l-2.637-3.166L69.857 6.417 79.88 9.583l10.815 18.201-2.11 1.055s-9.497-5.012-10.288-17.41"/><path fill="#51585E" d="M73.6 21.063c1.542.636 3.22.921 4.885.838.507-.025.51-.817 0-.791-1.604.08-3.19-.198-4.675-.81-.198-.081-.435.088-.487.277-.062.227.078.405.277.486"/><path fill="#DD5252" d="M87.503 63.739a33.67 33.67 0 012.83 12.549c.024.762 1.211.765 1.188 0a35.205 35.205 0 00-2.992-13.148c-.13-.294-.558-.362-.812-.213-.303.177-.343.517-.214.812M45.91 66.4c-1.503 4.283-2.862 8.773-2.168 13.356.049.317.448.492.73.414.34-.093.463-.412.415-.73-.658-4.342.748-8.678 2.167-12.725.253-.722-.893-1.033-1.145-.315"/></g></svg>